<svg width="351" height="351" viewBox="0 0 351 351" fill="none" xmlns="http://www.w3.org/2000/svg">
<g clip-path="url(#clip0_2552_18743)">
<path d="M348.797 229.261C347.916 233.499 334.12 295.051 275.69 317.051C222.894 336.943 177.216 308.413 166.967 301.998C123.539 274.857 97.1522 222.938 108.746 207.677C114.936 199.526 128.454 206.312 148.418 192.88C157.372 187.321 164.555 179.328 169.123 169.838C177.679 150.756 174.596 122.365 156.116 109.513C144.522 101.454 131.329 102.566 127.109 103.006C106.705 104.835 93.6741 118.845 88.0397 124.889C59.0564 155.989 63.6474 200.939 64.0184 204.227C68.9803 246.536 103.436 291.045 137.613 306.885C145.728 310.637 154.91 314.087 159.223 321.938C163.165 329.093 159.408 341.158 150.597 347.202C147.637 349.097 144.296 350.32 140.81 350.784C137.324 351.248 133.779 350.943 130.425 349.889C89.3231 338.281 53.75 312.341 30.1616 276.776C6.57324 241.211 -3.46714 198.379 1.86294 156.052C7.19302 113.725 27.5403 74.7098 59.2118 46.0862C90.8832 17.4626 131.78 1.12812 174.48 0.046875C182.41 0.046875 220.853 0.995434 246.358 30.3824C261.824 48.1212 265.186 67.5975 266.925 78.69C271.562 108.147 263.772 138.344 248.886 163.863C241.292 176.801 231.927 188.618 221.062 198.971C210.419 209.114 196.345 215.042 185.911 224.837C184.608 225.964 183.554 227.348 182.816 228.902C182.077 230.457 181.67 232.149 181.621 233.869C181.621 238.824 185.818 242.878 190.27 244.985C214.245 256.379 242.834 255.73 267.853 248.32C278.526 245.38 288.746 240.992 298.227 235.281C315.803 224.05 317.495 206.983 332.01 204.945C333.355 204.76 341.285 203.672 346.27 208.604C351.046 213.051 351.904 221.133 348.797 229.261Z" fill="#040B34"/>
<path d="M351 135.033C351.003 135.591 350.896 136.144 350.684 136.661C350.472 137.178 350.16 137.648 349.766 138.044C349.371 138.44 348.903 138.754 348.386 138.969C347.87 139.183 347.316 139.293 346.757 139.293H346.456L339.314 138.783C339.047 143.183 338.45 147.558 337.529 151.868C336.334 157.5 334.562 162.993 332.242 168.263C322.55 190.309 306.041 201.958 296.395 208.581C277.574 221.196 255.758 228.64 233.142 230.163C233.051 230.186 232.955 230.186 232.864 230.163H232.168C231.203 230.131 230.277 229.774 229.54 229.15C228.803 228.526 228.298 227.673 228.108 226.727C227.917 225.781 228.052 224.798 228.49 223.939C228.928 223.079 229.644 222.392 230.522 221.989H230.661C247.745 214.239 262.61 202.336 273.899 187.368C285.188 172.4 292.54 154.844 295.282 136.306L283.689 135.703H283.086C282.033 135.6 281.055 135.109 280.344 134.326C279.632 133.543 279.238 132.524 279.237 131.466C279.231 130.794 279.399 130.132 279.724 129.544C279.863 129.313 280.002 129.08 280.165 128.849C282.623 124.981 285.127 120.72 287.585 116.066C296.2 99.9535 302.448 82.6867 306.134 64.7955C306.327 63.8309 306.848 62.962 307.608 62.3373C308.369 61.7126 309.323 61.3706 310.307 61.3682C311.01 61.3646 311.703 61.5364 312.323 61.868C312.942 62.1996 313.469 62.6802 313.855 63.2667C320.873 72.6677 327.233 82.5414 332.891 92.8164C340.022 105.801 345.982 119.393 350.699 133.434C350.709 133.549 350.709 133.667 350.699 133.782C350.866 134.18 350.968 134.602 351 135.033Z" fill="#27B9F5"/>
</g>
<defs>
<clipPath id="clip0_2552_18743">
<rect width="351" height="351" fill="white"/>
</clipPath>
</defs>
</svg>
